:SAMPLES-PER-SECOND 30
:FULLY-SPECIFIED
:DEGREES
341
root  -1.25893 51.2916 1.43571 -4.2887 77.45 -6.79715
RightUpLeg  -72.4258 -7.77229 -0.663095
RightLeg  86.7057 0.450761 6.98121
RightFoot  2.99232 -1.62869 13.0464
RightToes  -3.31784e-009 0 -3.6325e-017
Spine  59.8569 3.42124 6.70539
Spine1  -19.2999 7.63657 -8.74297
HEad  -37.4131 -3.42911 -10.9051
LeftShoulder1  0.887302 -1.52858 -10.3971
LeftArm  -43.7551 2.86212 -9.98432
LeftForeArm  43.3171 -74.4604 -38.8858
LeftHand  -0.0557826 4.71869 6.15385
RightShoulder  0.381801 -1.71012 14.6023
RightArm  -32.4798 18.0556 -0.195496
RightForeArm  28.0592 68.1393 26.2767
RightHand  -1.78795 13.5908 -11.2958
LeftUpLeg  -69.9355 21.089 13.0781
LeftLeg  85.5744 -0.830487 -13.7031
LeftFoot  0.728412 0.287454 -2.70331
LeftToes  1.28511e-009 -3.60458e-011 6.16399e-011
342
root  0.574744 50.3733 1.45686 -8.50406 77.6147 -10.1429
RightUpLeg  -70.8008 -6.62299 -1.46815
RightLeg  81.6479 1.26672 8.61805
RightFoot  6.00936 -2.30307 15.2431
RightToes  -3.31784e-009 0 -3.6325e-017
Spine  59.7393 3.24905 7.62016
Spine1  -18.649 8.08078 -8.20913
HEad  -35.1093 -2.79455 -11.2162
LeftShoulder1  0.65864 0.0313082 -11.8004
LeftArm  -50.4864 11.3288 -7.75981
LeftForeArm  42.1961 -74.5254 -39.554
LeftHand  -0.0259651 5.3113 6.12483
RightShoulder  0.290877 -2.03265 13.0318
RightArm  -31.5167 11.7994 -2.52577
RightForeArm  25.1171 63.9469 20.979
RightHand  -1.65634 12.5262 -11.0832
LeftUpLeg  -69.5486 20.8299 13.0616
LeftLeg  79.9966 -1.6408 -9.79534
LeftFoot  4.27545 0.561829 -4.31686
LeftToes  1.28511e-009 -3.60458e-011 6.16399e-011
343
root  2.69123 49.0419 1.56544 -5.77402 79.5352 -8.26379
RightUpLeg  -67.105 -7.66607 -3.36248
RightLeg  72.7195 2.99809 9.95676
RightFoot  9.64147 -3.33836 18.2413
RightToes  -3.31784e-009 0 -3.6325e-017
Spine  55.6445 3.34617 7.10449
Spine1  -17.2375 7.73127 -6.89513
HEad  -31.5597 -2.52534 -11.9159
LeftShoulder1  0.263836 2.10638 -11.546
LeftArm  -53.5772 23.468 -6.12416
LeftForeArm  40.6962 -75.0685 -42.3594
LeftHand  -0.0230131 5.36998 7.20543
RightShoulder  0.184715 -2.52825 12.3809
RightArm  -30.1457 1.47205 -3.80914
RightForeArm  20.1329 61.9747 19.656
RightHand  -1.91518 14.037 -11.8031
LeftUpLeg  -67.9623 19.747 10.5082
LeftLeg  71.7594 -2.40999 -7.19236
LeftFoot  5.95094 0.878029 -6.02525
LeftToes  1.28511e-009 -3.60458e-011 6.16399e-011
344
root  5.02061 47.3098 1.54912 -3.59975 82.0354 -6.69624
RightUpLeg  -60.5927 -10.9352 -4.21743
RightLeg  60.737 5.52006 10.0365
RightFoot  12.0173 -4.15253 20.3316
RightToes  -3.31784e-009 0 -3.6325e-017
Spine  49.5306 3.00728 8.03999
Spine1  -14.1615 7.36616 -5.96401
HEad  -26.2741 -2.88107 -11.2687
LeftShoulder1  -0.114462 4.16299 -10.2194
LeftArm  -52.6777 36.8071 -5.55774
LeftForeArm  35.814 -74.255 -40.2961
LeftHand  -0.0706399 4.55984 7.43336
RightShoulder  -0.121572 -4.11956 12.2372
RightArm  -25.3489 -11.709 -6.20391
RightForeArm  16.8047 60.3001 18.5209
RightHand  -1.86524 13.4589 -11.849
LeftUpLeg  -63.6504 18.7016 7.76864
LeftLeg  61.4904 -4.28233 -7.76809
LeftFoot  8.8797 1.66083 -9.53046
LeftToes  1.28511e-009 -3.60458e-011 6.16399e-011
345
root  7.64156 45.1079 1.50388 5.59816 84.3923 2.00446
RightUpLeg  -53.6235 -16.279 -4.32905
RightLeg  48.9839 8.89788 10.4489
RightFoot  11.5297 -4.30424 21.4459
RightToes  -3.31784e-009 0 -3.6325e-017
Spine  40.6579 3.66219 7.89163
Spine1  -9.04262 6.7879 -2.46173
HEad  -19.3897 -2.59966 -11.4223
LeftShoulder1  -0.503601 6.49103 -9.34977
LeftArm  -46.3387 48.055 -3.876
LeftForeArm  26.9468 -70.2949 -30.8069
LeftHand  -0.0111621 5.55137 7.47866
RightShoulder  -0.235051 -4.8085 10.3086
RightArm  -13.8855 -26.1869 -8.84702
RightForeArm  12.7803 57.9219 17.0893
RightHand  -1.75992 12.175 -11.9721
LeftUpLeg  -57.6967 18.9989 4.32127
LeftLeg  50.7754 -8.06388 -9.96755
LeftFoot  14.4321 3.28726 -14.6201
LeftToes  1.28511e-009 -3.60458e-011 6.16399e-011
346
root  10.341 42.4552 1.49677 31.1338 84.8806 27.7464
RightUpLeg  -47.9004 -21.9078 -4.95391
RightLeg  40.478 11.6978 10.3063
RightFoot  10.7724 -4.68404 24.0603
RightToes  -3.31784e-009 0 -3.6325e-017
Spine  30.749 4.52874 5.55812
Spine1  -2.31263 5.71294 0.458711
HEad  -10.9556 -2.46675 -10.3267
LeftShoulder1  -0.70603 7.66399 -9.51352
LeftArm  -37.4966 56.7325 -1.27426
LeftForeArm  17.4206 -63.4465 -21.4323
LeftHand  0.0598216 6.86865 7.08506
RightShoulder  -0.226878 -4.90353 8.52623
RightArm  -1.64344 -36.3382 -8.84038
RightForeArm  9.30108 52.7895 14.1963
RightHand  -1.64374 12.1821 -11.2151
LeftUpLeg  -50.7204 21.8326 -0.159054
LeftLeg  41.2066 -10.9307 -9.84336
LeftFoot  19.1053 5.40451 -20.186
LeftToes  1.28511e-009 -3.60458e-011 6.16399e-011
347
root  12.8573 39.4358 1.54004 53.9099 83.4387 51.855
RightUpLeg  -43.4159 -26.4228 -6.77371
RightLeg  37.142 11.4834 8.98755
RightFoot  9.38402 -4.68569 26.0522
RightToes  -3.31784e-009 0 -3.6325e-017
Spine  23.6289 4.35385 1.96026
Spine1  2.94849 4.51239 0.866411
HEad  -3.96703 -2.32698 -8.92691
LeftShoulder1  -0.833221 8.08156 -10.8781
LeftArm  -32.3754 63.0858 -2.94097
LeftForeArm  11.9224 -57.1724 -16.5654
LeftHand  0.138548 8.95452 5.76438
RightShoulder  -0.317297 -5.43102 8.902
RightArm  1.67267 -40.0597 -3.04944
RightForeArm  5.72247 45.3777 10.954
RightHand  -1.57828 12.1069 -10.8344
LeftUpLeg  -43.9149 24.4677 -3.2169
LeftLeg  35.7166 -9.06196 -6.56682
LeftFoot  19.7967 6.32056 -23.2368
LeftToes  1.28511e-009 -3.60458e-011 6.16399e-011
348
root  14.9178 36.1643 1.66153 57.7574 81.5084 56.9289
RightUpLeg  -41.9908 -24.2181 -9.46498
RightLeg  41.3244 9.30741 8.28701
RightFoot  6.12126 -3.43921 18.9985
RightToes  -3.31784e-009 0 -3.6325e-017
Spine  21.2605 4.46923 -0.684418
Spine1  3.85359 4.24766 0.757419
HEad  -0.0492524 -0.828131 -8.24691
LeftShoulder1  -0.985256 8.04571 -14.7867
LeftArm  -36.4057 64.1083 -12.9419
LeftForeArm  4.57991 -51.6022 -13.8523
LeftHand  0.12063 9.0704 5.06337
RightShoulder  -0.475817 -5.79422 13.2883
RightArm  2.67158 -39.1517 0.990854
RightForeArm  -2.00182 38.412 8.99404
RightHand  -1.42192 11.7467 -9.97842
LeftUpLeg  -40.5271 24.9006 -3.88792
LeftLeg  38.0909 -6.88728 -5.51317
LeftFoot  13.579 3.94764 -15.7215
LeftToes  1.28511e-009 -3.60458e-011 6.16399e-011
349
root  16.35 32.9251 1.95851 41.8982 80.7705 43.0398
RightUpLeg  -46.1223 -15.6274 -9.38405
RightLeg  57.2819 3.85888 5.6672
RightFoot  -8.11611 0.297075 -3.30544
RightToes  -3.31784e-009 0 -3.6325e-017
Spine  25.9054 4.88026 0.313242
Spine1  1.16522 5.26417 -1.35492
HEad  -2.27939 0.547009 -6.11861
LeftShoulder1  -1.33237 8.15885 -21.6747
LeftArm  -40.0301 55.9425 -21.2937
LeftForeArm  -0.696741 -45.8064 -11.5643
LeftHand  0.0804854 7.99358 5.17454
RightShoulder  -0.984321 -6.86323 22.3062
RightArm  0.579357 -33.882 5.68122
RightForeArm  -1.97639 32.2547 7.2368
RightHand  -1.23154 11.9059 -8.6129
LeftUpLeg  -42.727 24.8269 -1.78592
LeftLeg  53.1595 -5.01564 -6.15427
LeftFoot  -5.31044 -0.349266 2.40106
LeftToes  1.28511e-009 -3.60458e-011 6.16399e-011
350
root  17.2119 30.1177 2.02098 28.6316 83.602 34.1832
RightUpLeg  -49.6464 -12.4465 -9.03415
RightLeg  74.3718 0.370594 0.993908
RightFoot  -13.1706 -0.1155 -3.08862
RightToes  -3.31784e-009 0 -3.6325e-017
Spine  35.7864 1.31886 5.41468
Spine1  0.715271 4.56536 -6.88409
HEad  -11.2798 1.54225 -5.39091
LeftShoulder1  -1.72287 8.15876 -31.4511
LeftArm  -35.3071 36.966 -25.7108
LeftForeArm  -4.2401 -36.7891 -8.7395
LeftHand  0.116979 8.9203 5.16081
RightShoulder  -1.45579 -7.62151 29.1774
RightArm  -3.07041 -21.4566 15.8281
RightForeArm  -4.71592 25.5904 5.69286
RightHand  -1.64921 14.7239 -9.9098
LeftUpLeg  -46.6962 19.7164 4.02687
LeftLeg  71.0904 -0.784026 -2.15325
LeftFoot  -12.6846 0.0943685 4.15054
LeftToes  1.28511e-009 -3.60458e-011 6.16399e-011
351
root  17.7641 28.2929 2.16086 14.6248 85.304 21.9202
RightUpLeg  -51.1388 -10.5596 -8.4432
RightLeg  82.9844 0.216325 -0.672897
RightFoot  -18.7444 -0.180116 -0.758679
RightToes  -3.31784e-009 0 -3.6325e-017
Spine  40.2855 0.428064 7.86151
Spine1  4.79649 4.44031 -4.90719
HEad  -17.9568 -0.354195 -6.55683
LeftShoulder1  -0.696237 5.15819 -34.5895
LeftArm  -24.1667 13.1822 -33.8225
LeftForeArm  -6.53579 -24.6133 -5.51424
LeftHand  0.0831941 7.89993 5.42624
RightShoulder  -0.903334 -6.00361 29.2818
RightArm  -2.10549 -8.04346 27.8207
RightForeArm  -2.79557 21.0096 4.42802
RightHand  -1.39595 13.7484 -8.87501
LeftUpLeg  -49.4583 17.6919 7.71933
LeftLeg  80.6397 -0.515985 -1.96863
LeftFoot  -17.151 0.240594 2.67199
LeftToes  1.28511e-009 -3.60458e-011 6.16399e-011
